HIERARCHY
ROOT joint_Root
{
	OFFSET 0.0 0.0 0.0
	CHANNELS 6 Xposition Yposition Zposition Zrotation Xrotation Yrotation 
	JOINT Hips
	{
		OFFSET -17.1583 93.1646 452.98
		CHANNELS 6 Xposition Yposition Zposition Zrotation Xrotation Yrotation 
		JOINT Spine
		{
			OFFSET 15.7357 0.0 0.0
			CHANNELS 6 Xposition Yposition Zposition Zrotation Xrotation Yrotation 
			JOINT Chest
			{
				OFFSET 8.98455 -0.406207 0.0
				CHANNELS 6 Xposition Yposition Zposition Zrotation Xrotation Yrotation 
				JOINT Neck
				{
					OFFSET 16.3773 0.0 0.0
					CHANNELS 6 Xposition Yposition Zposition Zrotation Xrotation Yrotation 
					JOINT Head
					{
						OFFSET 6.45672 0.0 0.0
						CHANNELS 6 Xposition Yposition Zposition Zrotation Xrotation Yrotation 
						End Site
						{
							OFFSET 0.0 0.0 0.0
						}
					}
				}
				JOINT Shoulder_L
				{
					OFFSET 12.9942 -0.242716 4.98039
					CHANNELS 6 Xposition Yposition Zposition Zrotation Xrotation Yrotation 
					JOINT UpperArm_L
					{
						OFFSET 5.34809 0.0 0.0
						CHANNELS 6 Xposition Yposition Zposition Zrotation Xrotation Yrotation 
						JOINT LowerArm_L
						{
							OFFSET 24.3286 1.87007e-05 0.0
							CHANNELS 6 Xposition Yposition Zposition Zrotation Xrotation Yrotation 
							JOINT Hand_L
							{
								OFFSET 22.2916 0.0 0.0
								CHANNELS 6 Xposition Yposition Zposition Zrotation Xrotation Yrotation 
								End Site
								{
									OFFSET 0.0 0.0 0.0
								}
							}
						}
					}
				}
				JOINT Shoulder_R
				{
					OFFSET 12.9945 -0.242716 -4.98039
					CHANNELS 6 Xposition Yposition Zposition Zrotation Xrotation Yrotation 
					JOINT UpperArm_R
					{
						OFFSET -5.34813 0.0 0.0
						CHANNELS 6 Xposition Yposition Zposition Zrotation Xrotation Yrotation 
						JOINT LowerArm_R
						{
							OFFSET -24.3289 0.000322201 0.0
							CHANNELS 6 Xposition Yposition Zposition Zrotation Xrotation Yrotation 
							JOINT Hand_R
							{
								OFFSET -22.2915 -0.000108084 0.0
								CHANNELS 6 Xposition Yposition Zposition Zrotation Xrotation Yrotation 
								End Site
								{
									OFFSET 0.0 0.0 0.0
								}
							}
						}
					}
				}
			}
		}
		JOINT UpperLeg_L
		{
			OFFSET -2.19248 -6.46944 0.0
			CHANNELS 6 Xposition Yposition Zposition Zrotation Xrotation Yrotation 
			JOINT LowerLeg_L
			{
				OFFSET 39.0811 0.0 -1.23785e-05
				CHANNELS 6 Xposition Yposition Zposition Zrotation Xrotation Yrotation 
				JOINT Foot_L
				{
					OFFSET 40.9854 0.0 -1.26872e-05
					CHANNELS 6 Xposition Yposition Zposition Zrotation Xrotation Yrotation 
					JOINT Toes_L
					{
						OFFSET 11.7543 0.0 0.0
						CHANNELS 6 Xposition Yposition Zposition Zrotation Xrotation Yrotation 
						End Site
						{
							OFFSET 0.0 0.0 0.0
						}
					}
				}
			}
		}
		JOINT UpperLeg_R
		{
			OFFSET -2.19251 6.46944 0.0
			CHANNELS 6 Xposition Yposition Zposition Zrotation Xrotation Yrotation 
			JOINT LowerLeg_R
			{
				OFFSET -39.0811 -0.00228153 -0.0401928
				CHANNELS 6 Xposition Yposition Zposition Zrotation Xrotation Yrotation 
				JOINT Foot_R
				{
					OFFSET -40.9854 0.0 0.0
					CHANNELS 6 Xposition Yposition Zposition Zrotation Xrotation Yrotation 
					JOINT Toes_R
					{
						OFFSET -11.7543 0.0 0.0
						CHANNELS 6 Xposition Yposition Zposition Zrotation Xrotation Yrotation 
						End Site
						{
							OFFSET 0.0 0.0 0.0
						}
					}
				}
			}
		}
	}
}
MOTION
Frames:	6
Frame Time:	0.0333333
0.000000 0.000000 0.000000 0.000000 0.000000 -0.000000 -0.838980 83.259600 -470.674000 90.697400 -0.820557 -19.636400 15.735700 0.000005 -0.000001 57.776600 84.831700 -56.754800 8.984550 -0.406207 -0.000000 1.035190 -5.569420 2.093520 16.377300 -0.000001 -0.000001 -11.182500 4.238060 -1.036350 6.456720 -0.000001 -0.000000 -3.118900 7.278850 0.139352 12.994200 -0.242716 4.980390 -92.333400 9.025720 -75.439900 5.348090 -0.000007 -0.000001 -63.441600 -34.731400 -1.879200 24.328600 0.000019 0.000005 55.823300 16.393800 -79.147700 22.291600 -0.000001 0.000005 45.150600 4.108340 22.669100 12.994500 -0.242716 -4.980390 89.376900 2.256610 -74.560700 -5.348130 -0.000001 -0.000004 -56.274600 -18.164200 20.033700 -24.328900 0.000322 -0.000009 1.549570 5.950880 -14.631700 -22.291500 -0.000108 -0.000004 57.331000 5.464290 -5.159510 -2.192480 -6.469440 -0.000000 178.592000 1.190670 -22.031200 39.081100 -0.000007 -0.000012 0.028449 -0.025861 47.724300 40.985400 -0.000006 -0.000013 -0.735178 8.155530 -94.408300 11.754300 -0.000000 0.000003 0.002432 0.071355 -13.682800 -2.192510 6.469440 -0.000001 -177.977000 -5.437750 129.802000 -39.081100 -0.002282 -0.040193 -0.115637 -0.001549 90.705100 -40.985400 0.000008 0.000006 -0.773917 -11.128700 -57.126500 -11.754300 -0.000006 -0.000006 0.000359 0.161399 -10.027400
0.000000 0.000000 0.000000 0.000000 0.000000 -0.000000 -1.494860 85.831200 -463.742000 86.749600 -2.220370 -21.138200 15.735700 0.000005 -0.000001 55.116800 85.353700 -52.771300 8.984550 -0.406207 -0.000000 -0.023922 -5.472540 4.689760 16.377300 -0.000001 -0.000001 -10.291700 5.535190 -1.498010 6.456720 -0.000001 -0.000000 -2.277970 8.787060 -0.622154 12.994200 -0.242716 4.980390 -92.061000 7.999250 -75.501100 5.348090 -0.000007 -0.000001 -62.747500 -34.482200 -3.586810 24.328600 0.000019 0.000005 56.801500 10.703400 -83.071400 22.291600 -0.000001 0.000005 45.472300 4.082580 23.038900 12.994500 -0.242716 -4.980390 89.717300 1.043760 -74.848200 -5.348130 -0.000001 -0.000004 -53.242900 -18.388200 23.629500 -24.328900 0.000322 -0.000009 2.077410 7.232880 -16.080600 -22.291500 -0.000108 -0.000004 58.433800 5.443020 -4.391270 -2.192480 -6.469440 -0.000000 -177.730000 -1.135320 -12.631900 39.081100 -0.000007 -0.000012 0.032802 -0.048398 34.127100 40.985400 -0.000006 -0.000013 -1.883930 8.151820 -85.768000 11.754300 -0.000000 0.000003 -0.003105 -0.041785 -18.276200 -2.192510 6.469440 -0.000001 -174.654000 -10.661500 124.817000 -39.081100 -0.002282 -0.040193 -0.146562 0.016017 83.869200 -40.985400 0.000008 0.000006 -3.007890 -13.454300 -66.266600 -11.754300 -0.000006 -0.000006 0.000314 0.162200 -9.994830
0.000000 0.000000 0.000000 0.000000 0.000000 -0.000000 -2.033290 88.691500 -456.608000 83.238500 -3.094080 -23.580900 15.735700 0.000005 -0.000001 46.813700 86.063000 -43.182300 8.984550 -0.406207 -0.000000 -1.836820 -5.691430 7.174990 16.377300 -0.000001 -0.000001 -9.066770 6.776300 -1.841310 6.456720 -0.000001 -0.000000 -1.461150 10.409000 -1.151650 12.994200 -0.242716 4.980390 -91.793100 6.846030 -75.284400 5.348090 -0.000007 -0.000001 -63.331700 -33.266100 -3.923520 24.328600 0.000019 0.000005 54.158900 6.432360 -85.376100 22.291600 -0.000001 0.000005 48.699300 4.026120 23.853600 12.994500 -0.242716 -4.980390 90.161500 -0.614473 -75.267900 -5.348130 -0.000001 -0.000004 -52.510200 -18.057600 25.669900 -24.328900 0.000322 -0.000009 2.209880 7.383850 -16.720700 -22.291500 -0.000108 -0.000004 59.136000 5.409180 -3.238310 -2.192480 -6.469440 -0.000000 -174.991000 -4.687340 -6.242350 39.081100 -0.000007 -0.000012 0.013665 -0.033214 22.364100 40.985400 -0.000006 -0.000013 -0.340028 6.498490 -69.620400 11.754300 -0.000000 0.000003 -0.053972 -0.311664 -29.427300 -2.192510 6.469440 -0.000001 -172.531000 -14.685900 122.205000 -39.081100 -0.002282 -0.040193 -0.121375 0.042817 71.017700 -40.985400 0.000008 0.000006 -3.910310 -16.113600 -71.393900 -11.754300 -0.000006 -0.000006 0.000078 0.166352 -9.826240
0.000000 0.000000 0.000000 0.000000 0.000000 -0.000000 -2.233050 91.158500 -449.468000 82.197200 -2.551110 -25.288100 15.735700 0.000005 -0.000001 34.282900 86.275500 -30.079500 8.984550 -0.406207 -0.000000 -3.325500 -6.558080 8.225890 16.377300 -0.000001 -0.000001 -8.123260 7.160560 -1.926880 6.456720 -0.000001 -0.000000 -0.756751 11.512500 -0.995356 12.994200 -0.242716 4.980390 -91.604800 6.207220 -75.473300 5.348090 -0.000007 -0.000001 -65.176700 -30.643900 -3.785340 24.328600 0.000019 0.000005 50.096700 3.562670 -87.026000 22.291600 -0.000001 0.000005 48.815500 4.031380 23.778700 12.994500 -0.242716 -4.980390 90.339100 -1.294500 -75.320100 -5.348130 -0.000001 -0.000004 -52.740000 -17.918300 26.438400 -24.328900 0.000322 -0.000009 1.857270 6.394630 -16.240700 -22.291500 -0.000108 -0.000004 58.396000 5.396310 -2.816400 -2.192480 -6.469440 -0.000000 -174.590000 -6.607800 -2.683180 39.081100 -0.000007 -0.000012 -0.004468 0.017083 14.656200 40.985400 -0.000006 -0.000013 2.660620 5.826010 -50.649400 11.754300 -0.000000 0.000003 -0.110180 -0.469153 -36.210600 -2.192510 6.469440 -0.000001 -172.909000 -15.440400 122.732000 -39.081100 -0.002282 -0.040193 -0.048855 0.037080 54.552000 -40.985400 0.000008 0.000006 -5.133460 -14.269600 -74.388400 -11.754300 -0.000006 -0.000006 -0.000003 0.167720 -9.770690
0.000000 0.000000 0.000000 0.000000 0.000000 -0.000000 -1.976190 92.440600 -441.739000 83.881700 -2.920340 -23.920000 15.735700 0.000005 -0.000001 35.426700 86.128100 -31.769200 8.984550 -0.406207 -0.000000 -3.063410 -6.652580 7.144810 16.377300 -0.000001 -0.000001 -7.498490 6.995430 -1.964660 6.456720 -0.000001 -0.000000 -0.152022 11.487700 -0.726121 12.994200 -0.242716 4.980390 -91.620000 6.273100 -75.489100 5.348090 -0.000007 -0.000001 -67.450800 -25.175800 -3.477160 24.328600 0.000019 0.000005 49.248700 3.449780 -87.031800 22.291600 -0.000001 0.000005 46.834600 4.051920 23.481800 12.994500 -0.242716 -4.980390 90.215100 -0.787333 -74.714900 -5.348130 -0.000001 -0.000004 -53.287100 -18.049600 25.903400 -24.328900 0.000322 -0.000009 0.911093 3.400010 -15.019800 -22.291500 -0.000108 -0.000004 57.154200 5.390690 -2.637530 -2.192480 -6.469440 -0.000000 -176.843000 -6.924790 1.011930 39.081100 -0.000007 -0.000012 -0.005999 0.025401 13.286000 40.985400 -0.000006 -0.000013 2.726290 4.949860 -37.101700 11.754300 -0.000000 0.000003 -0.017603 -0.153639 -22.849800 -2.192510 6.469440 -0.000001 -175.957000 -15.583200 127.563000 -39.081100 -0.002282 -0.040193 -0.007135 0.012881 38.959100 -40.985400 0.000008 0.000006 -5.783860 -11.754300 -76.963100 -11.754300 -0.000006 -0.000006 -0.000420 0.174465 -9.496740
0.000000 0.000000 0.000000 0.000000 0.000000 -0.000000 -1.632760 92.415000 -433.633000 85.872800 -3.527470 -21.568800 15.735700 0.000005 -0.000001 40.482000 86.033200 -37.629300 8.984550 -0.406207 -0.000000 -2.458380 -6.286720 5.574940 16.377300 -0.000001 -0.000001 -6.136510 6.711500 -2.040610 6.456720 -0.000001 -0.000000 0.421326 10.807700 -0.338347 12.994200 -0.242716 4.980390 -91.668800 6.292130 -75.113600 5.348090 -0.000007 -0.000001 -69.604200 -17.802100 -2.577580 24.328600 0.000019 0.000005 49.124000 6.423090 -84.469000 22.291600 -0.000001 0.000005 44.474300 4.068750 23.242900 12.994500 -0.242716 -4.980390 89.870900 0.463064 -74.418800 -5.348130 -0.000001 -0.000004 -54.128100 -18.418700 24.485200 -24.328900 0.000322 -0.000009 0.147609 0.631176 -13.208700 -22.291500 -0.000108 -0.000004 57.025100 5.374130 -2.115130 -2.192480 -6.469440 -0.000000 -179.202000 -7.002020 2.069770 39.081100 -0.000007 -0.000012 0.003232 -0.008349 21.161200 40.985400 -0.000006 -0.000013 1.104160 2.919980 -33.986500 11.754300 -0.000000 0.000003 0.001909 0.043372 -14.817400 -2.192510 6.469440 -0.000001 -178.375000 -15.515900 132.835000 -39.081100 -0.002282 -0.040193 0.000615 0.004803 29.235600 -40.985400 0.000008 0.000006 -5.607110 -12.881900 -79.436900 -11.754300 -0.000006 -0.000006 -0.000153 0.170202 -9.669870
